# xmcd
#
# Track frame offsets:
#	150
#	22326
#	39001
#	60375
#	75151
#	93299
#	111675
#	128251
#	146101
#	157273
#	170476
#	189827
#	207602
#	224476
#	246901
#	266173
#	279372
#	301277
#
# Disc length: 4275 seconds
#
# Revision: 1
# Processed by: cddbd v1.5.1PL0 Copyright (c) Steve Scherf et al.
# Submitted via: audiograbber 1.83.01
#
DISCID=0310b112
DTITLE=Various Artist - Бабушкин сундук. (2004)
DYEAR=1900
DGENRE=
TTITLE0=C.C. Catch feat. Krayzee. - Megamix. (Short Version)
TTITLE1=Modern Talking. - Brother Louie.
TTITLE2=Eiffel 65. - Blue. (Da Da Dee)
TTITLE3=Blue System. - My Bed Is Too Big.
TTITLE4=Dr. Alban. - It's My Life.
TTITLE5=Robert Miles. - Children.
TTITLE6=Lou Bega. - Mambo No 5.
TTITLE7=Chris Norman and Suzi Quatro. - Stumblin' In.
TTITLE8=Paul Anka. - You Are My Destiny.
TTITLE9=Afric Simone. - Hafanana.
TTITLE10=Dschinghis Khan. - Rocking Son Of Dschinghis Khan.
TTITLE11=Bad Boys Blue. - You're A Woman.
TTITLE12=Los Del Rio. - Macarena.
TTITLE13=Gloria Gaynor feat. Chico and The Gypsis. - I Will Survive.
TTITLE14=Amanda Lear. - Queen Of Chinatown.
TTITLE15=Vaya Con Dios. - Nah Neh Nah.
TTITLE16=Nina Simone. - Just Like A Woman.
TTITLE17=Space. - Magic Fly.
EXTD=
EXTT0=
EXTT1=
EXTT2=
EXTT3=
EXTT4=
EXTT5=
EXTT6=
EXTT7=
EXTT8=
EXTT9=
EXTT10=
EXTT11=
EXTT12=
EXTT13=
EXTT14=
EXTT15=
EXTT16=
EXTT17=
PLAYORDER=
